<svg id="f3a2686c-8b85-4127-abf4-ae98977ad892" data-name="Layer 1" xmlns="http://www.w3.org/2000/svg" viewBox="0 0 598.15 351.42"><path d="M512.37,129.38c4.25-.51,7.67,1.39,11.22,2.78,1,.39,2,.77,3,1.13,1.24.45,3.18.52,3.62,1.37,1.26,2.45,2.66,4.85,2.45,8a47.05,47.05,0,0,0,.47,12.5c2.11,10.29,4.89,20.44,5.89,30.92.87,9.23,1.51,18.47,2,27.73.39,7.11.35,5.52.6,12.64.16,4.37.65,8.73.74,13.09a36.18,36.18,0,0,1,0,5.1,93.29,93.29,0,0,1-2.18,13.75c-.21.94-2.43,5.55-4.15,7.08-3.16,2.82-6,3-10.27,3a5.9,5.9,0,0,1-4.08-3.14c-.77-1.29-.71-2.61.68-3.41,6.67-3.8,8.24-10.1,8.52-17.17,0-.73,0-1.9,0-2.52,0-12.89-.59-17-1-29.93-.24-6.82-.53-13.66-1.25-20.43-.85-8-2.19-15.91-3.36-23.86a5.55,5.55,0,0,0-.68-1.69c-1.15-2.17-1.56-2.23-3.33-.47-4.49,4.47-10.12,5.67-16.1,5.1-2.79-.27-5-2.19-6.65-4.55-3.12-4.41-5.7-9.05-5-14.67.85-6.52,2.29-12.7,8-17.21C504.87,131.78,508,129.18,512.37,129.38Zm9.33,14c.49-1.8-.56-3-2.37-3.55a12.53,12.53,0,0,0-4.91-.72c-9.54,1.34-14.07,12.49-9.74,20.13,1.12,2,2.6,2.31,4.92,1.61C516,158.91,521.72,150.67,521.7,143.39Z"/><path d="M407.1,215.92a47.49,47.49,0,0,1,.28,5c-.07,4.82.19,9.36-.16,14.17-.18,2.41-.46,5.06-.46,7.35-.16,1.76-.78,3.91-3.52,4.3-3.31.72-5.94-1.84-5.86-5.19,0-9.35.26-10.91-.08-20.24s-1.2-8.9-3.6-17.9c-1.75-6.58-3.07-13.28-4.38-20-1.58-8-3.22-16.08-4.35-24.18a162,162,0,0,1-1.76-21.07c0-4.92,1.11-9.86,1.94-14.76a77.55,77.55,0,0,1,2.28-9.61c1.62-5.29,6-7.1,11.22-5.23s9.58,4.81,12.11,9.92a6,6,0,0,1,.59,3.28c-.33,2.54-2.66,3.33-4.57,1.61a24.71,24.71,0,0,1-2.1-2.44,9.9,9.9,0,0,0-1.58-1.65c-4.43-3.11-6.93-2.87-7.82,2.68-.85,5.29-1.95,10.57-2.35,15.9-.27,3.68.45,7.44.78,11.16.14,1.52,1.15,1.81,2.49,1.61,4.62-.7,9.24-1.41,13.88-2a19.4,19.4,0,0,1,4.1.05,3.28,3.28,0,0,1,2.95,4.66c-.72,1.46-2.1,3.24-3.51,3.61a120.55,120.55,0,0,1-14.38,2.68c-3.65.48-3.95.62-3.43,4.16.64,4.39,1,8.82,1.85,13.17,1,5.12,2.25,10.18,3.47,15.25,1.07,4.46,2.34,8.6,3.74,13.17a26.93,26.93,0,0,1,1.43,4.78"/><path d="M111.17,131.85a81.69,81.69,0,0,1-4.4,24.88c-2.29,6.73-5.4,12.94-10.58,17.67a13.35,13.35,0,0,1-13,3c-6-1.68-9.86-5.56-13-11s-7-14.32-7.54-16.92A118.24,118.24,0,0,1,60.59,131c-.28-4.87.95-9.65,2.37-14.35.91-3,1.21-6.2,2.44-9C68,101.57,72,96.52,78.58,94.37c2.85-.93,5.28-.13,8.6,1a22.5,22.5,0,0,1,5.4,3c4.14,2.8,6.91,6,10,11a80.64,80.64,0,0,1,4.85,8.51,58.39,58.39,0,0,1,3.12,9A30,30,0,0,1,111.17,131.85Zm-41,5.27c.48,4.94.13,7,1.6,11.73,1.53,4.89,3.62,9.67,6.54,12.89,3.26,3.61,7.83,4.69,11.24,2.19a32.52,32.52,0,0,0,5.62-9.12c2.43-5.68,3.57-11.66,4.49-17.77,1.19-7.92-.64-17.51-3.08-21.76-2-3.56-5.65-7.12-8.86-8.43-5.56-2.26-8.32-.52-11.55,4C71,117.89,69,125.53,70.15,137.12Z"/><path d="M433.19,127c.29,4.3.62,7.82,1.35,12.65,1,3.89.53,6.64,1.48,11.22a108.56,108.56,0,0,1,1.91,13.24c.32,6,1.3,12,1.82,18,.67,7.6,1.08,15.22,1.78,22.81.24,1.81.25,2.83.46,4.41.95,7.2,1.13,8.92,2.17,16.11.42,3,1.08,5.89,1.57,8.84.44,2.64.92,5.28,1.14,7.95.28,3.59-2.61,5.26-6.1,4.52-3.86-.83-4.12-3.84-4.65-6.5-1-5-1.45-10.16-2.24-15.23-.89-5.67-1.24-5.82-2-11.51-1.16-8.52-1-10.34-1.91-18.88-1.1-10.15-1.94-20.32-3.07-30.46-.9-8.16-2.14-16.29-3.1-24.45-.91-7.84-1.61-15.71-2.48-23.56a7,7,0,0,1,2.11-5.86c1.72-1.81,3.62-.89,5.34.55C434.15,115.34,433.12,125.48,433.19,127Z"/><path d="M448.41,136.31c1.64-3.66,6.85-6.93,10.48-7.67a28.59,28.59,0,0,1,12.34.21,15.6,15.6,0,0,1,10.29,7.58,41.66,41.66,0,0,1,4.23,8.54,26.58,26.58,0,0,1,1.29,8.31c0,3,0,6.38-1.18,9.05A25,25,0,0,1,475,174.46a14,14,0,0,1-7.32,2.53,21.17,21.17,0,0,1-13.31-3,33.09,33.09,0,0,1-7.55-17.6c-.28-2.43-.67-4.84-1-7.27A31.08,31.08,0,0,1,448.41,136.31Zm18.89.48a20,20,0,0,0-7,1.12c-2.36.83-4.29,3.73-5.07,8.24-1.08,6.7-.76,10.94,1.54,15.49,1.15,2.25,4.79,5.54,7.61,6a12.88,12.88,0,0,0,13.92-10.89,21.65,21.65,0,0,0-.44-10.59C475.6,139.29,473.32,136.81,467.3,136.79Z"/><path d="M214.62,90.36c.59,9.85,1.63,20,1.66,30.26,0,6.36,1.65,12.34,2.38,18.5.67,5.56,1.19,11.15,2.07,16.68.82,5.19,2.11,10.31,3,15.5a13.58,13.58,0,0,1-.16,4.92c-.28,1.45-2.07,1.73-3.42,1.25-6.55-2.36-7.49-8.23-8.46-13.82-1.4-8-2.37-16.08-3.41-24.14-.85-6.62-1.68-13.24-2.26-19.88-.56-6.42-.73-12.87-1.21-19.3-.43-5.79-1.28-11.56-1.44-17.35A7.81,7.81,0,0,1,206,77.82c1.55-1.42,3.85-.55,5.42,1.22C214.19,82.19,214.8,86,214.62,90.36Z"/><path d="M141.75,81.36c2.94,0,5.88,3.67,6.66,6.8,1.07,4.29,1.49,8.75,2.38,13.09.81,4,2.1,7.82,2.76,11.78.55,3.27.91,6.4,1.17,9.72,0,.58.39,1.78.48,2.26.17.9.78,2.69,1,4.35.34,2,.48,3.74.8,5.68.53,3.24,1.35,6.44,1.84,9.69,1.27,8.54,2.48,17.1,3.57,25.67a21.66,21.66,0,0,1-.24,5.9c-.25,1.68-3.08,2.68-4.3,1.5-2.55-2.43-5.2-4.6-5.72-8.7-1.12-8.64-3-17.19-4.28-25.82-.82-5.44-1-11-1.82-16.43-.76-4.83-2.16-9.56-3.17-14.35-1.37-6.44-2.61-12.9-3.95-19.34-.19-.88-.62-2.75-.77-3.74-.35-3-.54-3.72.62-5.89A4.08,4.08,0,0,1,141.75,81.36Z"/><path d="M352,176.68a15.25,15.25,0,0,1-4.18-.64c-2.55-.84-3.16-2.2-2.47-4.65a2.57,2.57,0,0,1,1.77-1.42c5.52-.82,10.56-2.93,15.61-5.08,3.8-1.63,4.72-3.83,3.37-7.55-3-3.59-5.35-4.49-8.54-6.69-2.63-1.82-5.86-3.82-8.48-5.71a24,24,0,0,1-9.08-9,18.65,18.65,0,0,1-2.42-9.44c0-3.62,1.62-5.91,5.33-6.89a18.13,18.13,0,0,1,9.28-.07c2.2.56,3.61,2.13,3.45,3.83a4.42,4.42,0,0,1-4.09,3.8c-.92.1-1.85.12-2.76.26-2,.31-2.19,1.47-1.32,3.23a7.65,7.65,0,0,0,1.73,2.32,46.34,46.34,0,0,0,6.84,5.82c3.1,2,14.62,9.51,16.6,13.34,2.42,4.32,2.64,9.64,2.55,11.86-.2,4.63-3.15,7.07-7.18,9A42.67,42.67,0,0,1,352,176.68Z"/><path d="M316.51,134.75c5.87,2.9,11.07,5.39,15,10.46,3.11,4,3.61,8.53,4,14.32a24.77,24.77,0,0,1-.21,5.51c-.5,3.2-1.42,4.57-3.87,6.69-1,.87-1.4,1.19-2,1.73-5.87,4.95-12.71,3-17.2,1.73a14.49,14.49,0,0,1-2.43-1.28c-1-.5-2.21-.9-2.67-1.72-.57-1-1-2.75-.51-3.63s2.17-1.45,3.35-1.48c2.58-.08,5.17.45,7.75.4a8.44,8.44,0,0,0,8.36-8.1c.67-8-4.77-11.63-12.3-15.39-2.49-1.24-4.85-1.7-7-3.88a19.35,19.35,0,0,1-4.18-4.61,17.71,17.71,0,0,1,.07-11.72c1.19-3.34,4.18-4,7-4.51a18.78,18.78,0,0,1,7.47.09c1.62.4,3.86,1.64,4.26,3.38s-2.36,4.88-3.82,5.23c-1.25.31-5-.74-5.7,1.55C310.76,132.83,315.08,134,316.51,134.75Z"/><path d="M293.7,173.85a5.33,5.33,0,0,1-2.4,1.26c-2.12.5-5.65-1.64-6.05-3.84-1.2-6.48-2.47-13-3.46-19.46-.79-5.14-1-10.36-1.86-15.48-.54-3.22-1.89-6.29-2.65-9.48-.88-3.72,1.76-6.94,5.22-6.52a2.45,2.45,0,0,1,1.66.92,35.75,35.75,0,0,1,5.29,13.35c1.05,6.88,2.22,13.75,3.28,20.63.68,4.45,1.42,8.9,1.83,13.38C294.74,170.68,295.14,172.09,293.7,173.85Z"/><path d="M206.34,175.8c-2.35,2.65-6.83.41-9.37-3.89-5.3-8.93-8.5-18.87-12.53-28.4-1.77-4.18-4.09-8.29-4-13,0-1.36.48-3.26,1.33-3.81,1.41-.91,3.54-1.61,4.95.4a60.88,60.88,0,0,1,5.1,8.76A104.69,104.69,0,0,1,197,148.37c2.37,7.36,6.32,13.86,9.29,20.87C207.2,171.34,208,173,206.34,175.8Z"/><path d="M181.73,159.16c-.54,2.42-2,10.2-3.46,14.24-.48,1.33-.63,2.79-1.2,4.07a2.33,2.33,0,0,1-1.83,1.05,6.41,6.41,0,0,1-5.63-6.8,43,43,0,0,1,1.22-6.81c2.34-9.86,4.68-19.72,7.15-29.55a36.21,36.21,0,0,1,2.76-7.45,3.35,3.35,0,0,1,4-1.94c2,.59,2.92,1.79,3.32,4.06.72,4.06-1.24,8.95-2.14,12.79C185.16,146.34,182.3,156.6,181.73,159.16Z"/><path d="M243.85,155.15a65.53,65.53,0,0,1-9.72-.38c-2.1-.3-3.84-3.7-3.5-5.73.3-1.78,3-3.69,5.43-3.91,8.68-.75,17.36-1.54,26.05-2.2,1.56-.11,3.53-.1,4.67.66a8.7,8.7,0,0,1,3.63,4.7c.2,1-1.2,2.57-2.35,2.84-6.56,1.53-13.21,2.71-19.83,4C247.51,155.17,245.26,155.15,243.85,155.15Z"/><path d="M234.47,136.1c-2.66-.32-6.15-4.56-5.49-6.95a4.53,4.53,0,0,1,2.46-2.46c5.75-2.36,11.6-4.25,18-3.66,2.51.24,5.07-.08,7.58.19,2.17.23,4.79.33,6.31,1.59a5.86,5.86,0,0,1,2.07,5c0,1.86-1.9,2.92-3.88,3a107.39,107.39,0,0,0-11.27,1.16c-4.91.67-9.81,1.4-14.72,2.1C235.14,136.09,234.75,136.08,234.47,136.1Z"/><path d="M268.72,164c2.81-.05,4,.68,4.07,3.26.07,1.94-.68,2.8-2,3.88a9.88,9.88,0,0,1-5.12,2.09c-5.11.84-10.11,2.12-15.24,2.87a32.58,32.58,0,0,1-9.89.28,8,8,0,0,1-6.17-5.63c-.7-2,.88-3.68,2.77-4.42,2.3-.91,5.06-1.08,7.64-1.48a19.47,19.47,0,0,1,2.86,0C247.75,164.83,261.7,164.41,268.72,164Z"/><path d="M117.31,168.47c0-2.11,1.85-4.93,3.67-5.39,2.41-.6,4,.55,5.4,2.46s2.86,3.57,1.94,6.34c-1.23,3.7-3.89,5-7.11,2.73C119.14,173.17,117.32,171.34,117.31,168.47Z"/><path d="M278.41,101.4c-1.15,1.83-3.43,3.1-6,.95a3.62,3.62,0,0,1-1.2-4.65,5.45,5.45,0,0,1,2.86-2.83c1.5-.45,3.43-.38,4.16,1.76C278.89,98.51,279.31,98.73,278.41,101.4Z"/></svg>